HIERARCHY
ROOT mixamorig:Hips
{
	OFFSET 0.000000 201.639420 0.000000
	CHANNELS 6 Xposition Yposition Zposition Xrotation Yrotation Zrotation
	JOINT mixamorig:Spine
	{
		OFFSET 0.006200 19.524994 -2.481800
		CHANNELS 3 Xrotation Yrotation Zrotation
		JOINT mixamorig:Spine1
		{
			OFFSET -0.000900 22.835007 -2.825400
			CHANNELS 3 Xrotation Yrotation Zrotation
			JOINT mixamorig:Spine2
			{
				OFFSET -0.020600 26.552490 -3.193300
				CHANNELS 3 Xrotation Yrotation Zrotation
				JOINT mixamorig:Neck
				{
					OFFSET -0.060000 30.701813 1.352200
					CHANNELS 3 Xrotation Yrotation Zrotation
					JOINT mixamorig:Head
					{
						OFFSET -0.087200 22.547607 3.670900
						CHANNELS 3 Xrotation Yrotation Zrotation
						JOINT mixamorig:HeadTop_End
						{
							OFFSET -0.830600 40.355194 7.893500
							CHANNELS 3 Xrotation Yrotation Zrotation
							End Site
							{
								OFFSET 0.000000 30.592346 0.000000
							}
						}
						JOINT mixamorig:RightEye
						{
							OFFSET -6.302100 18.118591 16.197100
							CHANNELS 3 Xrotation Yrotation Zrotation
							End Site
							{
								OFFSET 0.000000 30.592346 0.000000
							}
						}
						JOINT mixamorig:LeftEye
						{
							OFFSET 6.741500 18.382690 16.401899
							CHANNELS 3 Xrotation Yrotation Zrotation
							End Site
							{
								OFFSET 0.000000 30.592346 0.000000
							}
						}
					}
				}
				JOINT mixamorig:LeftShoulder
				{
					OFFSET 11.924900 18.230499 1.425400
					CHANNELS 3 Xrotation Yrotation Zrotation
					JOINT mixamorig:LeftArm
					{
						OFFSET 25.435989 -0.697632 -5.229300
						CHANNELS 3 Xrotation Yrotation Zrotation
						JOINT mixamorig:LeftForeArm
						{
							OFFSET 54.684776 0.000000 0.000000
							CHANNELS 3 Xrotation Yrotation Zrotation
							JOINT mixamorig:LeftHand
							{
								OFFSET 55.098175 0.000000 0.000000
								CHANNELS 3 Xrotation Yrotation Zrotation
								JOINT mixamorig:LeftHandMiddle1
								{
									OFFSET 23.369751 0.000000 0.000000
									CHANNELS 3 Xrotation Yrotation Zrotation
									JOINT mixamorig:LeftHandMiddle2
									{
										OFFSET 6.378677 0.000000 0.000000
										CHANNELS 3 Xrotation Yrotation Zrotation
										JOINT mixamorig:LeftHandMiddle3
										{
											OFFSET 6.148331 0.000000 0.000000
											CHANNELS 3 Xrotation Yrotation Zrotation
											JOINT mixamorig:LeftHandMiddle4
											{
												OFFSET 6.582504 0.000000 0.000000
												CHANNELS 3 Xrotation Yrotation Zrotation
												End Site
												{
													OFFSET -1.168900 6.395691 1.028606
												}
											}
										}
									}
								}
								JOINT mixamorig:LeftHandThumb1
								{
									OFFSET 7.235672 -3.848206 5.434273
									CHANNELS 3 Xrotation Yrotation Zrotation
									JOINT mixamorig:LeftHandThumb2
									{
										OFFSET 6.568451 -3.792297 3.792300
										CHANNELS 3 Xrotation Yrotation Zrotation
										JOINT mixamorig:LeftHandThumb3
										{
											OFFSET 6.063080 -3.500519 3.500518
											CHANNELS 3 Xrotation Yrotation Zrotation
											JOINT mixamorig:LeftHandThumb4
											{
												OFFSET 4.793182 -2.767334 2.767349
												CHANNELS 3 Xrotation Yrotation Zrotation
												End Site
												{
													OFFSET 0.101639 6.054260 1.275483
												}
											}
										}
									}
								}
								JOINT mixamorig:LeftHandIndex1
								{
									OFFSET 23.101074 -0.309540 4.992809
									CHANNELS 3 Xrotation Yrotation Zrotation
									JOINT mixamorig:LeftHandIndex2
									{
										OFFSET 6.226883 0.000000 0.000000
										CHANNELS 3 Xrotation Yrotation Zrotation
										JOINT mixamorig:LeftHandIndex3
										{
											OFFSET 6.094330 0.000000 0.000000
											CHANNELS 3 Xrotation Yrotation Zrotation
											JOINT mixamorig:LeftHandIndex4
											{
												OFFSET 5.482605 0.000000 0.000000
												CHANNELS 3 Xrotation Yrotation Zrotation
												End Site
												{
													OFFSET -1.427902 5.233032 0.797164
												}
											}
										}
									}
								}
								JOINT mixamorig:LeftHandRing1
								{
									OFFSET 22.299240 0.021149 -3.964172
									CHANNELS 3 Xrotation Yrotation Zrotation
									JOINT mixamorig:LeftHandRing2
									{
										OFFSET 6.321869 0.000000 0.000000
										CHANNELS 3 Xrotation Yrotation Zrotation
										JOINT mixamorig:LeftHandRing3
										{
											OFFSET 5.899796 0.000000 0.000000
											CHANNELS 3 Xrotation Yrotation Zrotation
											JOINT mixamorig:LeftHandRing4
											{
												OFFSET 6.517899 0.000000 0.000000
												CHANNELS 3 Xrotation Yrotation Zrotation
												End Site
												{
													OFFSET -1.637299 6.232208 0.980890
												}
											}
										}
									}
								}
								JOINT mixamorig:LeftHandPinky1
								{
									OFFSET 20.463791 -0.302338 -8.562233
									CHANNELS 3 Xrotation Yrotation Zrotation
									JOINT mixamorig:LeftHandPinky2
									{
										OFFSET 6.908646 0.000000 0.000000
										CHANNELS 3 Xrotation Yrotation Zrotation
										JOINT mixamorig:LeftHandPinky3
										{
											OFFSET 4.622849 0.000000 0.000000
											CHANNELS 3 Xrotation Yrotation Zrotation
											JOINT mixamorig:LeftHandPinky4
											{
												OFFSET 5.216080 0.000000 0.000000
												CHANNELS 3 Xrotation Yrotation Zrotation
												End Site
												{
													OFFSET -0.606308 5.116241 0.814926
												}
											}
										}
									}
								}
							}
						}
					}
				}
				JOINT mixamorig:RightShoulder
				{
					OFFSET -12.001300 18.284088 1.348900
					CHANNELS 3 Xrotation Yrotation Zrotation
					JOINT mixamorig:RightArm
					{
						OFFSET -25.308500 -0.751312 -5.164599
						CHANNELS 3 Xrotation Yrotation Zrotation
						JOINT mixamorig:RightForeArm
						{
							OFFSET -54.684429 0.000000 0.000000
							CHANNELS 3 Xrotation Yrotation Zrotation
							JOINT mixamorig:RightHand
							{
								OFFSET -55.150291 0.000000 0.000000
								CHANNELS 3 Xrotation Yrotation Zrotation
								JOINT mixamorig:RightHandMiddle1
								{
									OFFSET -23.317566 0.000000 0.000000
									CHANNELS 3 Xrotation Yrotation Zrotation
									JOINT mixamorig:RightHandMiddle2
									{
										OFFSET -6.378403 0.000000 0.000000
										CHANNELS 3 Xrotation Yrotation Zrotation
										JOINT mixamorig:RightHandMiddle3
										{
											OFFSET -6.148193 0.000000 0.000000
											CHANNELS 3 Xrotation Yrotation Zrotation
											JOINT mixamorig:RightHandMiddle4
											{
												OFFSET -6.583389 0.000000 0.000000
												CHANNELS 3 Xrotation Yrotation Zrotation
												End Site
												{
													OFFSET 1.171692 6.395905 1.029786
												}
											}
										}
									}
								}
								JOINT mixamorig:RightHandThumb1
								{
									OFFSET -7.190521 -3.860474 5.435846
									CHANNELS 3 Xrotation Yrotation Zrotation
									JOINT mixamorig:RightHandThumb2
									{
										OFFSET -6.567429 -3.791718 3.791708
										CHANNELS 3 Xrotation Yrotation Zrotation
										JOINT mixamorig:RightHandThumb3
										{
											OFFSET -6.062469 -3.500153 3.500166
											CHANNELS 3 Xrotation Yrotation Zrotation
											JOINT mixamorig:RightHandThumb4
											{
												OFFSET -4.792618 -2.767029 2.767022
												CHANNELS 3 Xrotation Yrotation Zrotation
												End Site
												{
													OFFSET -0.100327 6.053253 1.276754
												}
											}
										}
									}
								}
								JOINT mixamorig:RightHandIndex1
								{
									OFFSET -23.048981 -0.310791 4.992554
									CHANNELS 3 Xrotation Yrotation Zrotation
									JOINT mixamorig:RightHandIndex2
									{
										OFFSET -6.227539 0.000000 0.000000
										CHANNELS 3 Xrotation Yrotation Zrotation
										JOINT mixamorig:RightHandIndex3
										{
											OFFSET -6.095047 0.000000 0.000000
											CHANNELS 3 Xrotation Yrotation Zrotation
											JOINT mixamorig:RightHandIndex4
											{
												OFFSET -5.484772 0.000000 0.000000
												CHANNELS 3 Xrotation Yrotation Zrotation
												End Site
												{
													OFFSET 1.420593 5.237305 0.797056
												}
											}
										}
									}
								}
								JOINT mixamorig:RightHandRing1
								{
									OFFSET -22.246323 0.020569 -3.963762
									CHANNELS 3 Xrotation Yrotation Zrotation
									JOINT mixamorig:RightHandRing2
									{
										OFFSET -6.322128 0.000000 0.000000
										CHANNELS 3 Xrotation Yrotation Zrotation
										JOINT mixamorig:RightHandRing3
										{
											OFFSET -5.900024 0.000000 0.000000
											CHANNELS 3 Xrotation Yrotation Zrotation
											JOINT mixamorig:RightHandRing4
											{
												OFFSET -6.518356 0.000000 0.000000
												CHANNELS 3 Xrotation Yrotation Zrotation
												End Site
												{
													OFFSET 1.636398 6.232697 0.982186
												}
											}
										}
									}
								}
								JOINT mixamorig:RightHandPinky1
								{
									OFFSET -20.411011 -0.303314 -8.561701
									CHANNELS 3 Xrotation Yrotation Zrotation
									JOINT mixamorig:RightHandPinky2
									{
										OFFSET -6.907349 0.000000 0.000000
										CHANNELS 3 Xrotation Yrotation Zrotation
										JOINT mixamorig:RightHandPinky3
										{
											OFFSET -4.623840 0.000000 0.000000
											CHANNELS 3 Xrotation Yrotation Zrotation
											JOINT mixamorig:RightHandPinky4
											{
												OFFSET -5.218353 0.000000 0.000000
												CHANNELS 3 Xrotation Yrotation Zrotation
												End Site
												{
													OFFSET 0.602097 5.118835 0.816273
												}
											}
										}
									}
								}
							}
						}
					}
				}
			}
		}
	}
	JOINT mixamorig:LeftUpLeg
	{
		OFFSET 18.168400 -13.561905 -0.039000
		CHANNELS 3 Xrotation Yrotation Zrotation
		JOINT mixamorig:LeftLeg
		{
			OFFSET 0.577358 -80.825211 -3.695000
			CHANNELS 3 Xrotation Yrotation Zrotation
			JOINT mixamorig:LeftFoot
			{
				OFFSET -0.577356 -83.370262 -6.520700
				CHANNELS 3 Xrotation Yrotation Zrotation
				JOINT mixamorig:LeftToeBase
				{
					OFFSET 0.750401 -20.798306 25.135401
					CHANNELS 3 Xrotation Yrotation Zrotation
					JOINT mixamorig:LeftToe_End
					{
						OFFSET -0.000500 0.001200 19.917799
						CHANNELS 3 Xrotation Yrotation Zrotation
						End Site
						{
							OFFSET 0.000000 19.917805 0.000000
						}
					}
				}
			}
		}
	}
	JOINT mixamorig:RightUpLeg
	{
		OFFSET -18.162500 -13.585098 -0.041000
		CHANNELS 3 Xrotation Yrotation Zrotation
		JOINT mixamorig:RightLeg
		{
			OFFSET -0.595024 -80.945297 -3.631900
			CHANNELS 3 Xrotation Yrotation Zrotation
			JOINT mixamorig:RightFoot
			{
				OFFSET 0.595024 -83.218193 -6.561200
				CHANNELS 3 Xrotation Yrotation Zrotation
				JOINT mixamorig:RightToeBase
				{
					OFFSET -0.753601 -20.807106 25.115000
					CHANNELS 3 Xrotation Yrotation Zrotation
					JOINT mixamorig:RightToe_End
					{
						OFFSET 0.000299 0.001700 19.918200
						CHANNELS 3 Xrotation Yrotation Zrotation
						End Site
						{
							OFFSET 0.000000 19.918203 0.000000
						}
					}
				}
			}
		}
	}
}
MOTION
Frames: 6
Frame Time: 0.033333
9.463085 19.093689 5.348755 86.697879 -2.144867 -0.737376 0.514979 -1.362948 -0.129802 0.656575 -0.633078 0.072942 0.658148 -0.632253 0.065473 1.087418 -9.166823 -3.913507 -0.451776 -53.054669 6.287230 -0.000000 -0.000000 0.000000 -0.000000 -0.000000 0.000000 -0.000000 -0.000000 0.000000 -0.443086 2.040339 11.600231 -49.899846 35.549352 -3.755643 -0.000010 -129.116393 -0.000018 6.047367 23.851456 20.187724 -0.849449 3.243412 12.380279 -0.000006 -0.000005 0.000008 0.012624 -0.417501 3.461681 -0.000003 0.000000 -0.000000 -10.141269 1.476114 25.585040 7.082950 14.103007 2.072234 0.224485 7.288909 5.742830 0.000000 -0.000001 0.000002 -0.941126 3.019902 14.028131 -0.000006 0.000021 -0.000026 0.016002 -0.470108 3.898577 0.000000 -0.000000 -0.000002 -0.820904 3.311159 11.864245 0.037669 0.720770 -5.983676 0.000474 -0.080909 0.670462 -0.000001 0.000001 -0.000001 -1.379301 7.608086 10.150965 0.106899 -2.806450 -10.909328 0.000761 0.102624 -0.850546 0.000000 -0.000000 -0.000001 -1.372255 -13.278145 -3.691099 -82.034130 -15.967176 58.193792 0.000094 109.306044 -0.000115 37.158049 -2.520336 12.226801 -0.218454 -0.785668 -9.323715 0.000047 -0.026818 0.220308 0.932991 -0.012004 0.113892 0.000001 -0.000000 0.000002 -7.191413 10.293868 -11.370449 10.603152 -26.647314 -2.960551 0.096672 -3.057357 -2.624216 -0.000001 -0.000001 -0.000001 -0.221311 -0.678953 -9.934333 0.006125 -0.292413 2.400144 0.000895 -0.111569 0.915503 0.000001 -0.000000 0.000000 -0.235446 -0.724451 -10.119262 -0.000001 0.000011 0.000011 -1.903948 -0.163155 1.047429 -0.000001 0.000000 0.000001 -0.224430 -0.870247 -9.108491 0.000002 -0.000005 0.000011 0.000703 -0.099013 0.812374 0.000000 -0.000000 0.000001 -12.453879 25.541436 14.718841 21.646123 -9.772007 10.027671 10.402039 -13.185668 1.187451 -15.699656 0.137592 1.162449 -0.000000 0.000000 0.000001 -6.395690 0.518961 -13.194023 21.695466 -4.927218 -0.641557 12.853245 1.108576 7.908391 -22.541639 -0.072948 -2.614628 0.000000 -0.000000 -0.000001 
9.476041 19.099747 5.364441 86.629707 -2.118421 -0.703190 0.527616 -1.337934 -0.183350 0.669505 -0.621531 0.045373 0.671019 -0.620385 0.037921 1.227520 -9.199533 -3.768854 -0.668915 -53.037703 6.089846 -0.000000 0.000001 0.000000 -0.000000 0.000001 0.000000 -0.000000 0.000001 0.000000 -0.414942 1.853335 11.741088 -49.747826 35.663874 -3.708637 -0.000012 -129.157443 -0.000010 6.062879 23.987493 20.384278 -0.824005 3.303665 11.934727 -0.000004 0.000014 -0.000008 0.013160 -0.426531 3.536572 -0.000000 0.000001 -0.000000 -10.163698 1.548272 25.628195 7.021444 13.944660 2.045243 0.195331 7.198637 5.726397 0.000000 -0.000002 0.000001 -0.943552 3.013650 14.073881 -0.000001 0.000012 -0.000009 0.016104 -0.471598 3.910910 -0.000002 -0.000001 -0.000001 -0.752613 3.466370 10.709088 0.021323 0.542507 -4.500195 0.000729 -0.100847 0.835733 -0.000003 -0.000001 -0.000002 -1.130177 7.870009 8.301220 0.059344 -3.082942 -8.587254 0.000381 0.071880 -0.595729 0.000000 0.000000 -0.000000 -1.332876 -13.243587 -3.452518 -82.056185 -15.729526 58.020907 0.000045 109.268308 -0.000078 37.181299 -2.636132 12.090435 -0.213913 -0.822330 -9.018511 0.000017 -0.012839 0.105192 0.946940 -0.004197 0.040017 0.000002 -0.000000 -0.000003 -7.180810 10.215363 -11.368849 10.548245 -26.475417 -2.942480 0.081643 -3.024282 -2.620358 -0.000001 0.000000 0.000003 -0.216725 -0.721516 -9.582276 0.004385 -0.247395 2.030366 0.000786 -0.104351 0.856282 0.000002 0.000000 -0.000000 -0.232031 -0.751987 -9.883334 0.000000 -0.000003 0.000022 -1.919737 -0.148765 0.953429 -0.000001 0.000000 0.000000 -0.221374 -0.888880 -8.937857 0.000001 -0.000003 0.000011 0.000519 -0.085013 0.697526 -0.000001 -0.000000 0.000001 -12.163945 25.161423 14.484446 21.546460 -9.764143 10.027078 10.479974 -12.760723 1.012177 -15.908190 0.143815 1.222091 0.000000 0.000000 -0.000001 -6.249472 0.628060 -13.284676 21.637201 -5.043944 -0.502383 12.857480 1.094934 7.879877 -22.521360 -0.073030 -2.616534 0.000000 0.000000 -0.000001 
9.483562 19.103485 5.378372 86.611238 -2.098796 -0.667073 0.495153 -1.306609 -0.245483 0.659753 -0.607141 0.014727 0.661193 -0.605666 0.007347 1.426229 -9.231807 -3.617436 -0.874055 -53.032375 5.939820 -0.000000 -0.000002 -0.000000 -0.000000 -0.000002 -0.000000 -0.000000 -0.000002 -0.000000 -0.377400 1.617457 11.891236 -49.586654 35.794566 -3.613140 -0.000014 -129.220704 -0.000012 6.017305 24.159580 20.622501 -0.798426 3.362903 11.494854 -0.000002 0.000012 0.000002 0.013688 -0.434916 3.606246 -0.000001 0.000001 0.000001 -10.154908 1.488137 25.591839 7.029498 13.964487 2.048007 0.229238 7.221146 5.694762 0.000001 0.000000 0.000000 -0.940523 3.021488 14.016421 0.000005 -0.000002 -0.000017 0.016342 -0.475134 3.940310 -0.000002 0.000001 0.000001 -0.691451 3.598543 9.716577 0.011134 0.392193 -3.251814 0.000974 -0.116262 0.963551 -0.000000 -0.000000 -0.000001 -0.917068 8.081027 6.765471 0.028019 -3.317062 -6.631690 0.000176 0.049426 -0.409630 0.000000 -0.000000 0.000001 -1.288149 -13.192872 -3.188790 -82.057435 -15.457259 57.796364 0.000033 109.216296 -0.000040 37.157240 -2.748337 11.970067 -0.210401 -0.849647 -8.791114 -0.000001 -0.003364 0.027521 0.954659 0.000868 -0.008155 0.000001 -0.000000 -0.000002 -7.175363 10.163698 -11.377096 10.511743 -26.361209 -2.930691 0.072422 -3.004383 -2.618278 -0.000001 0.000000 0.000000 -0.212975 -0.754971 -9.306595 0.003212 -0.211851 1.738751 0.000696 -0.098662 0.809615 -0.000000 0.000000 -0.000000 -0.229690 -0.770121 -9.726908 0.000003 0.000007 0.000009 -1.934134 -0.141181 0.903257 -0.000001 0.000000 0.000002 -0.219680 -0.898093 -8.848717 0.000002 -0.000004 0.000011 0.000440 -0.078528 0.644439 -0.000001 -0.000000 -0.000001 -11.924435 24.788315 14.252201 21.442230 -9.756325 10.026853 10.547627 -12.328917 0.833035 -16.043626 0.152253 1.296942 0.000000 0.000000 0.000001 -6.174104 0.722305 -13.363170 21.602575 -5.139060 -0.395562 12.846342 1.085890 7.876698 -22.493181 -0.073141 -2.619462 0.000000 -0.000001 -0.000001 
9.482755 19.104813 5.393616 86.635943 -2.088147 -0.636758 0.440609 -1.278949 -0.301760 0.636971 -0.594471 -0.012137 0.638429 -0.592735 -0.019428 1.587843 -9.257948 -3.487348 -1.004748 -53.022492 5.833290 0.000000 -0.000000 0.000000 0.000000 -0.000000 0.000000 0.000000 -0.000000 0.000000 -0.346703 1.428588 12.015642 -49.439836 35.882211 -3.535838 0.000005 -129.298951 0.000006 5.902623 24.371312 20.887106 -0.774608 3.416775 11.092721 -0.000005 0.000035 0.000001 0.014152 -0.442188 3.666586 0.000001 0.000000 0.000000 -10.132215 1.336714 25.520312 7.086656 14.110472 2.072093 0.302898 7.321444 5.658330 -0.000002 -0.000001 -0.000000 -0.932926 3.040904 13.873628 0.000001 -0.000006 -0.000004 0.016672 -0.479942 3.980372 -0.000003 0.000000 -0.000000 -0.641948 3.701183 8.939309 0.005640 0.279079 -2.313158 0.001165 -0.127108 1.053223 -0.000000 -0.000001 -0.000002 -0.754130 8.234811 5.617468 0.009702 -3.494150 -5.157583 0.000096 0.034971 -0.289839 0.000000 -0.000001 -0.000000 -1.251219 -13.157309 -2.963700 -82.036781 -15.213830 57.590816 0.000028 109.170650 -0.000044 37.101465 -2.839020 11.872844 -0.208084 -0.867667 -8.642834 -0.000001 -0.000058 0.000086 0.955609 0.003374 -0.032147 0.000002 -0.000000 -0.000003 -7.173434 10.134814 -11.387443 10.490354 -26.294270 -2.923886 0.067385 -2.993661 -2.617291 -0.000001 0.000002 0.000001 -0.210291 -0.778589 -9.113522 0.002506 -0.186866 1.533457 0.000640 -0.094625 0.776360 0.000001 0.000000 -0.000002 -0.228448 -0.779834 -9.644172 -0.000000 0.000005 0.000023 -1.944919 -0.139601 0.892066 0.000000 0.000000 -0.000001 -0.219232 -0.899789 -8.828535 0.000002 -0.000004 0.000011 0.000443 -0.078611 0.645079 -0.000001 -0.000000 0.000000 -11.727286 24.420523 14.029403 21.324646 -9.748499 10.027052 10.608452 -11.898184 0.652950 -16.132524 0.160909 1.371112 -0.000000 -0.000000 0.000000 -6.161176 0.796283 -13.416242 21.581000 -5.201933 -0.328389 12.833143 1.072042 7.895755 -22.473583 -0.073391 -2.624356 0.000000 0.000000 0.000000 
9.475904 19.108002 5.410461 86.689724 -2.087863 -0.616098 0.399229 -1.267459 -0.334024 0.616927 -0.589249 -0.026821 0.618359 -0.587379 -0.034046 1.587986 -9.271025 -3.412470 -0.993555 -52.983919 5.752065 -0.000000 -0.000001 -0.000000 -0.000000 -0.000001 -0.000000 -0.000000 -0.000001 -0.000000 -0.344777 1.407475 12.068265 -49.320837 35.838146 -3.573549 0.000016 -129.370681 0.000006 5.730456 24.622089 21.157051 -0.755508 3.459059 10.775070 -0.000001 0.000003 -0.000007 0.014500 -0.447598 3.711722 0.000001 0.000001 0.000001 -10.089369 1.127845 25.394864 7.173118 14.332658 2.109225 0.406024 7.469781 5.612026 0.000003 -0.000001 0.000002 -0.921306 3.070206 13.657164 0.000004 -0.000003 -0.000019 0.017041 -0.485250 4.024387 -0.000001 -0.000000 0.000000 -0.611657 3.761988 8.474608 0.003496 0.219637 -1.820700 0.001265 -0.132759 1.100214 -0.000001 0.000000 -0.000001 -0.665979 8.315198 5.005184 0.001846 -3.588096 -4.376707 0.000059 0.028923 -0.239859 0.000000 -0.000001 0.000001 -1.237257 -13.177707 -2.852667 -82.001202 -15.077134 57.500480 0.000090 109.157508 -0.000099 37.042452 -2.888590 11.806713 -0.207179 -0.875275 -8.582663 -0.000001 -0.000006 0.000008 0.953280 0.003298 -0.031560 -0.000001 -0.000000 -0.000003 -7.177312 10.139383 -11.399270 10.488479 -26.288287 -2.923552 0.067785 -2.994986 -2.617757 -0.000001 -0.000001 -0.000000 -0.208972 -0.790372 -9.018657 0.002186 -0.174612 1.432757 0.000612 -0.092457 0.758763 -0.000002 0.000001 -0.000001 -0.228335 -0.781152 -9.634614 -0.000000 0.000015 0.000019 -1.950013 -0.143688 0.917679 -0.000001 0.000000 0.000001 -0.219876 -0.895068 -8.867689 -0.000000 -0.000005 0.000013 0.000515 -0.084660 0.694780 -0.000002 -0.000000 -0.000000 -11.561119 24.058508 13.819421 21.193370 -9.740762 10.027774 10.664987 -11.466710 0.483202 -16.263425 0.167672 1.431817 0.000000 -0.000000 -0.000000 -6.191661 0.859504 -13.444127 21.562472 -5.238440 -0.289353 12.834376 1.047674 7.930081 -22.476194 -0.073874 -2.633448 0.000000 -0.000001 -0.000000 
9.466103 19.115784 5.428696 86.753955 -2.097304 -0.608074 0.401355 -1.279325 -0.330082 0.613975 -0.594739 -0.023955 0.615383 -0.592907 -0.031175 1.346086 -9.267686 -3.410663 -0.811422 -52.900116 5.664815 -0.000000 -0.000001 -0.000000 -0.000000 -0.000001 -0.000000 -0.000000 -0.000001 -0.000000 -0.384598 1.625313 12.018515 -49.248898 35.616759 -3.771146 -0.000031 -129.415788 -0.000037 5.516602 24.883745 21.400446 -0.744095 3.483751 10.587781 0.000004 0.000009 -0.000004 0.014686 -0.450562 3.736286 -0.000001 0.000000 -0.000001 -10.033551 0.887015 25.233512 7.276536 14.600207 2.154546 0.526689 7.645511 5.559451 0.000001 -0.000001 0.000004 -0.907657 3.104270 13.405278 -0.000002 0.000004 -0.000006 0.017384 -0.489951 4.063337 0.000001 0.000000 -0.000000 -0.605338 3.774122 8.379337 0.003584 0.222844 -1.846728 0.001280 -0.133306 1.104620 -0.000002 -0.000001 -0.000000 -0.664809 8.315888 4.997246 0.002070 -3.585130 -4.401393 0.000069 0.030714 -0.254557 0.000000 0.000001 -0.000001 -1.255170 -13.279534 -2.898705 -81.965173 -15.096397 57.593262 0.000065 109.192786 -0.000062 37.009684 -2.885932 11.777042 -0.207781 -0.871352 -8.617637 -0.000004 -0.000006 0.000007 0.950718 0.000729 -0.006692 0.000000 -0.000000 -0.000000 -7.188146 10.183558 -11.410171 10.508055 -26.349266 -2.930283 0.074095 -3.009461 -2.619810 0.000000 0.000001 0.000001 -0.209280 -0.788284 -9.037599 0.002255 -0.177471 1.456408 0.000613 -0.092666 0.760468 0.000002 0.000000 0.000001 -0.229243 -0.774520 -9.692778 -0.000003 -0.000005 0.000012 -1.948652 -0.152554 0.974393 0.000000 0.000000 0.000000 -0.221283 -0.885833 -8.948731 0.000001 -0.000004 0.000010 0.000651 -0.095365 0.782652 -0.000001 0.000000 -0.000001 -11.410769 23.702602 13.625567 21.050585 -9.733080 10.028955 10.722626 -11.024764 0.329855 -16.559181 0.171191 1.476306 -0.000000 0.000000 0.000000 -6.237326 0.922651 -13.449898 21.533882 -5.265171 -0.263956 12.861926 1.014567 7.970871 -22.509160 -0.074678 -2.647936 -0.000000 -0.000000 -0.000000 
